<svg xmlns="http://www.w3.org/2000/svg" width="294.239" height="81.306"><g data-name="图层 2"><g data-name="图层 1" fill="#fff"><path data-name="路径 1" d="M238.288 50.054c-2.106-.444-.86-1.118-1.189-2.866-.287-1.548-1.691-3.067-1.648-4.213.115-3.1 4.084-2.866 6.491-1.92a4.4 4.4 0 011.433 1.433c1.1 1.591 2.407 3.912.7 5.732a6.721 6.721 0 01-5.732 1.92" fill-rule="evenodd"/><path data-name="路径 2" d="M214.357 46.829l-.2-.086v-.673a66.985 66.985 0 006.377-4.141 8.913 8.913 0 003.625-4.944c-4.1 1.347-7.982 4.3-12.223 4.657a25.02 25.02 0 01-4.7-2.164v-.229c-2.25-1.433-2.45-3.353 0-4.17 4.3.946 10.8-2.106 14.831-3.64a15.763 15.763 0 004.213-2.149c.946-5.632.33-11.292.659-16.68 1.433-3.912 3.812-1.261 6.219.7.172.315.716.673 1.2 1.433h.244c1.017 1.634 1.3 2.379-.287 3.9a20.377 20.377 0 00-1.433 8.6c2.866-.416 4.7-2.981 8.111-3.038a3.1 3.1 0 01-.788 4.227c-2.479 1.189-5.173 2.25-7.982 3.525a20.849 20.849 0 01-3.8 8.6 17.2 17.2 0 01-2.02 1.949 24.361 24.361 0 01-5.445 2.866 27.012 27.012 0 01-6.576 1.429" fill-rule="evenodd"/><path data-name="路径 3" d="M161.666 56.444a15.2 15.2 0 01-4.972-4.858c.186-.545.373-1.089.588-1.6a126.473 126.473 0 0013.842-11.167c1.318-2.02 3.024-4.127 4.442-6.119a.545.545 0 01.244-.086 1.227 1.227 0 010-.215c1.218-.946 1.734-1.2 2.766.358.086 1.318-2.264 2.708-2.995 3.941a100.342 100.342 0 01-3.153 7.165 17.3 17.3 0 00-1.92 2.866 17.2 17.2 0 00-3.711 5.159c-1.433.874-2.149 3.539-3.969 4.471a9.666 9.666 0 00-1.146.129" fill-rule="evenodd"/><path data-name="路径 4" d="M189.882 39.693c-2.952-.129-3.783-2.006-5.388-3.726 0-.774.416-1.232.487-1.777a2.866 2.866 0 001.189-.444c1.232-.172 1.677-.1 3.009-.186 1.705-.387 6.047-3.382 7.509-2.092.215 3.582-3.683 7.165-6.807 8.225" fill-rule="evenodd"/><path data-name="路径 5" d="M167.241 34.047c-1.118-.989-1.347-5.546-1.433-6.979.831-2.536 3.4-2.637 5.531-.989 1.705 2.235 2.866 3.167 1.075 5.732a7.752 7.752 0 01-5.173 2.192" fill-rule="evenodd"/><path data-name="路径 6" d="M189.154 31.841c-.3-1.433 1.6-4.3 1.06-5.058-.716.1-1.433.373-2.192.416-1.777-.86-3.726-3.024-3.009-4.686 1.3-1.433.8-1.1 2.866-1.232 1.949-.874 3.9-1.72 5.875-2.565 3.31-.616 4.829 1.2 5.03 4.442a14.9 14.9 0 01-3.353 5.388c-1.748.96-3.339 2.02-4.929 3.067a6.639 6.639 0 00-1.333.229" fill-rule="evenodd"/><path data-name="路径 7" d="M170.995 22.483c-.7-.616-.416-.946 0-1.576-.086-1.361-.9-2.465-.989-3.769.444-2.407 0-3.281 1.977-4.442 1.548.688 6.936 3.439 5.732 6.463a10.862 10.862 0 01-6.606 3.324" fill-rule="evenodd"/><path data-name="路径 8" d="M101.196 58.751c-3.21-1.232-6-7.58-2.135-9.142a1.791 1.791 0 011.046-1.29 1.562 1.562 0 010-.244c3.11-3.009 5.144-7.165 7.767-10.532.673-1.261 1.032-2.479 2.465-2.866.731.631.473 2.078.272 3.181.315.287 1.433.072 2.092-.129 2.164-1.877 4.987-3.511 7.165-5.474.115-.96.215-1.92.373-2.866-1.519.358-6.463 1.519-5.273-1.275 1.849-.731 4.671-2.321 5.732-4.3.473-2.035.2-4.3 1.232-5.732 2.078-1.075 4.542 1.548 4.958 3.8.831 1.433 3.439-.358.2 4.213-.688.5-.659 1.433-.53 2.536h.716a68.464 68.464 0 015.875-3.9 24.088 24.088 0 012.436-7.838c2.02-1.433 4.757.115 6.721 1.691a6.692 6.692 0 003.84-1.734 3.754 3.754 0 011.548-.158 5.3 5.3 0 01.631 2.536c-.96 2.981-9.5 3.955-7.853 7.423 1.433-.1 1.992-1.72 2.551-2.866 1.662-.888 5.273.186 7.007 1.433 1.949 2.364.444 3.167-1.705 4.657-.229.315-.444.645-.631.96-.143 4.757-.143 4.757 0 11.206a11.464 11.464 0 01-2.608 4.012v.2h-.358c-.831 1.433-2.866 2.866-4.041 1.433 0-5.3.272-10.79.086-15.763a.788.788 0 00-.258.086c-.387 2.579-2.966 7.423-5.173 9.013a4.213 4.213 0 01-4.3-2.78c.215-.53.6-.645 1.032-1.017 1.146-2.35.8-6.678.8-8.985-1.662.244-4.442 3.984-5.732 5.374-.831.673-1.677 1.333-2.493 2.006-.588 1.963-1.046 3.9-1.562 6-.444.931-.888 1.92-1.347 2.866h-.229c-.774 1.3-3.281 4.729-4.772 2.579v-.845a13.1 13.1 0 002.192-6.377c-2.02.673-3.367 2.522-5.4 2.651a12.4 12.4 0 01-3.11-1 1.432 1.432 0 010-.229c-.5-.315-1-.745-1.3-.631a107.622 107.622 0 00-1.075 3.5 81.449 81.449 0 00-5 13.484 3.024 3.024 0 01-1.834 1.075" fill-rule="evenodd"/><path data-name="路径 9" d="M105.194 33.474c-.631-.917.143-2.106.172-3.167-.989-2.995-1.777-5.23.129-7.752l.917-.086a25.02 25.02 0 014.542 4.757c1.433 3.582-3.167 5.187-5.732 6.233" fill-rule="evenodd"/><path data-name="路径 10" d="M108.074 21.881c-.759-.258-.745-.43-.888-.688.358-.731.7-1.161.559-1.906-1.834-2.866-1.734-7.165 1.433-8.512.931.115.946.9 1.433 2.164 2.063 2.006 5.9 4.485 2.264 7.165-1.533.673-3.2 1.2-4.729 1.734" fill-rule="evenodd"/><path data-name="路径 11" d="M261.119 32.873c-2.866-.888-2.336-5.6-1.849-7.509 2.092-1.333 4.843 1.433 5 3.9-.545 2.708-.516 3.11-3.153 3.611" fill-rule="evenodd"/><path data-name="路径 12" d="M276.633 54.615l-.244-.143a26.281 26.281 0 01-10.475-1.29 1.275 1.275 0 01-.172-.731c1.935-1.132 4.671-.817 6.162-2.866a16.638 16.638 0 00.258-4.3c-3.64.215-5.589 2.866-8.469 3.84-2.465.143-6.864-2.092-7.58-4.055 0-3.167.659-1.748 4.055-1.949 4.041-.716 8.082-3.052 11.994-4.757a3.984 3.984 0 011.3-.817c.86-2.637 1.433-3.11 4.213-3.64 1.075-.545 1.075-.545 4.213-2.436a7.611 7.611 0 01.272-.931c-4.757.573-8.6 4.428-12.4 6.964a6.405 6.405 0 01-4.605-.389c-.831.115-5.56.96-3.267-.931 1.433-.545 2.479-1.562 3.969-2.221 3.568-2.393 7.7-4.457 11.55-6.663a1.992 1.992 0 00-.372-1.089 4.8 4.8 0 01.387-1.849c-.717.258-.917.2-1.06.745-2.278 1-3.253 3.081-5.159.888a4.3 4.3 0 01-3.941 3.525c-2.035-1.046-2.092-4.457-2.45-6.033-.143-.2-.43-1.519-.989-3.052-.931-1.877-2.637-3.984-1.5-5.732 1.433-.888 2.035-1.218 3.267.745a17.453 17.453 0 013.453 3.3h.229c.645 1.734 2.235 4.012 2.063 6.219 1.075-.631 2.594-1.863 1.806-3.224-1.763-.946-.759-2.594.473-3.2a9 9 0 002.006-.072.8.8 0 00-.272-.673c-1.433-.516-1.189-.86-.8-2.063a2.723 2.723 0 01-1.705-3.7c4.987-1.247 4.987-1.247 7.308-1.992 1.555-1.928 3.232-7.163 6.24-6.246a6.821 6.821 0 011.433 4.829 8.6 8.6 0 00-1.06 2.336h.9c2.078-1.032 3.038-2.264 4.3.831 2.02 1.089 2.737.8 1.977 3.726a216.512 216.512 0 01-4.657 9.028 1.275 1.275 0 000 .4q.559.1 1.118.258a25.788 25.788 0 01.215 4.571c-1.247 1.849-2.866 1.849-4.815 2.106-2.536 1.261-4.815 2.307-7.165 3.726a3.854 3.854 0 00.158 1.562h3.688c1.361.888 1.247 3.367.4 4.815a8.468 8.468 0 00-3.453 1 78.097 78.097 0 00-.373 2.063c.086 2.637 1.433 9.013-2.45 9.615m7.776-32.509a5.331 5.331 0 001.977-4.184 5.875 5.875 0 00-3.869-.96 13.368 13.368 0 01-1.433 2.766l.387.172a1.176 1.176 0 00-.358.158 1.014 1.014 0 00.072.229 1.286 1.286 0 001.1-.731c1.92-.315 1.963.373 1.82 2.422a1.018 1.018 0 01.244.129" fill-rule="evenodd"/>

<path data-name="路径 31" d="M40.653 0A40.653 40.653 0 110 40.653 40.653 40.653 0 0140.653 0m0 1.619a39.034 39.034 0 1039.034 39.034A39.034 39.034 0 0040.653 1.619"/><path data-name="路径 32" d="M26.366 57.978a22.784 22.784 0 01-6.047-7.824 22.462 22.462 0 1134.606 7.824l-.473-.659a21.64 21.64 0 10-33.358-7.495 21.967 21.967 0 005.789 7.494z"/><path data-name="路径 33" d="M5.846 54.224l-1.533-4.113.831-.287 7.022 1.075-1.063-2.894.831-.287 1.4 3.769-.845.287-7.015-1.075 1.2 3.238z" fill-rule="evenodd"/><path data-name="路径 34" d="M8.512 59.84l-.412-.831 3.3-1.691-1.054-2.05-3.3 1.705-.43-.817 7.064-3.64.43.831-2.976 1.521 1.046 2.035 2.981-1.519.416.817z" fill-rule="evenodd"/><path data-name="路径 35" d="M11.865 64.311l-2.508-3.51 6.62-4.113 2.393 3.34-.731.444-1.82-2.536-2.063 1.275 1.677 2.336-.731.459-1.675-2.337-2.366 1.476 1.934 2.708z" fill-rule="evenodd"/><path data-name="路径 36" d="M17.496 69.814l-.845-.7 4.886-5.99.831.7z" fill-rule="evenodd"/><path data-name="路径 37" d="M21.28 72.45l.989-2.121-1.2-.874-1.806 1.748-.831-.63 5.732-5.646 1.161.7-3.067 7.451zm1.433-3.153l1.189-2.737-.115-.1-2.063 2.107z" fill-rule="evenodd"/><path data-name="路径 38" d="M26.997 75.233l-1.017-.487.6-5.5-2.264 4.628-1.032-.473 3.582-7.093.931.43-.43 5.23 2.336-4.313.86.358z" fill-rule="evenodd"/><path data-name="路径 39" d="M32.342 76.821l-.673-.215v-.63a1.2 1.2 0 01-.631.258 1.591 1.591 0 01-.774-.072 1.963 1.963 0 01-1.218-1.29 4.3 4.3 0 01.158-2.866 5.818 5.818 0 011.433-2.737 2.436 2.436 0 012.407-.487c.86.272 1.433 1.318 1.175 2.766l-1.032-.072c.172-.63.086-1.6-.516-1.791a1.333 1.333 0 00-1.433.373 6.463 6.463 0 00-1.014 2.221 4.213 4.213 0 00-.244 2.235 1.161 1.161 0 00.731.874.96.96 0 00.917-.129 2.207 2.207 0 00.673-1.146l.143-.459-1.22-.386.244-.8 2.006.659z" fill-rule="evenodd"/><path data-name="路径 40" d="M42.903 75.073a2.536 2.536 0 01-.573 1.677 1.977 1.977 0 01-1.648.559 2.02 2.02 0 01-1.619-.688 2.579 2.579 0 01-.459-1.72l.172-5.4h.946l-.172 5.445a1.619 1.619 0 00.3 1.132 1.161 1.161 0 00.86.387 1.118 1.118 0 00.874-.33 1.562 1.562 0 00.373-1.1l.172-5.4h.96z" fill-rule="evenodd"/><path data-name="路径 41" d="M48.334 76.508l-.86.143-2.68-5.173.416 5.546-1.017.143-.588-7.781 1.161-.1 2.221 3.622-.412-3.9.845-.143z" fill-rule="evenodd"/><path data-name="路径 42" d="M51.229 75.703l-.989.3-2.078-7.364 1-.3z" fill-rule="evenodd"/><path data-name="路径 43" d="M53.923 66.375l1.261 8.125-.974.487-4.314-6.907.946-.4 2.995 4.714-.831-5.617z" fill-rule="evenodd"/><path data-name="路径 44" d="M61.918 70.975l-3.625 1.963-3.955-6.792 3.453-1.863.43.759-2.637 1.419 1.234 2.107 2.422-1.3.444.745-2.423 1.31 1.4 2.422 2.809-1.519z" fill-rule="evenodd"/><path data-name="路径 45" d="M66.057 68.08l-.8.673-2.866-2.321-.731.659 1.906 2.579-.8.845-4.659-6.547 1.433-1.06a2.465 2.465 0 011.662-.516 2.049 2.049 0 012.006 2.278 3.511 3.511 0 01-.172 1.075zm-5.03-4.614c-.588-.158-1.046.3-1.433.631l1.551 2.053a2.665 2.665 0 001.046-1.032 1.333 1.333 0 00-1.118-1.648" fill-rule="evenodd"/><path data-name="路径 46" d="M68.567 61.761a2.235 2.235 0 01-.889 4.071 2.565 2.565 0 01-1.533-.272l.358-.831a2.436 2.436 0 001.046.143 1.247 1.247 0 00.516-2.293 1.433 1.433 0 00-1.017-.2c-.931.1-1.533.8-2.565.874a1.935 1.935 0 01-2.106-1.734 2.207 2.207 0 01.33-1.6 2.035 2.035 0 012.866-.516l-.358.845a1.433 1.433 0 00-1.72.258 1.075 1.075 0 00-.186.845 1 1 0 001.146.917c1-.129 1.677-.96 2.68-.917a3.138 3.138 0 011.5.416" fill-rule="evenodd"/><path data-name="路径 47" d="M71.992 60.758l-.573.716-6.706-4.2.588-.716z" fill-rule="evenodd"/><path data-name="路径 48" d="M68.61 52.275l-.731 1.376 6.319 3.726-.43.788-6.319-3.709-.745 1.361-.788-.461 1.906-3.539z" fill-rule="evenodd"/><path data-name="路径 49" d="M69.771 47.058l3.855 3.439 2.579 1.121-.315.86-2.379-.917-5.5-.129.272-.888 3.84.057-2.725-2.497z" fill-rule="evenodd"/><path data-name="路径 50" d="M16.909 66.36a3.009 3.009 0 01-1.92 1.046 2.092 2.092 0 01-1.6-.7 2.164 2.164 0 01-.65-1.564 1.949 1.949 0 01.258-.931l.874.53a1.075 1.075 0 00-.115.43 1.032 1.032 0 00.287.8 1.175 1.175 0 00.931.416 2.135 2.135 0 001.175-.731l3.912-3.826.716.731z" fill-rule="evenodd"/><path data-name="路径 51" d="M30.092 65.013l-2.751-1.676.244-.416 1 .616 1.6-2.866-1-.616.215-.373a2.622 2.622 0 00.917.387.588.588 0 00.573-.272l.631.387-2.16 3.769.989.616zm8.069-1.705a.588.588 0 00-.229-.588 1.648 1.648 0 00-.888-.344 1.963 1.963 0 00-.931 0 .659.659 0 00-.444.473.516.516 0 00.1.43 1.347 1.347 0 00.473.373c.086 0 .229.129.43.215a4.2 4.2 0 00.559.229 1.82 1.82 0 00.673-.358 1.046 1.046 0 00.258-.5m-.358 2.422a.6.6 0 00-.072-.487 1.92 1.92 0 00-.631-.459l-.416-.186-.6-.258a1.734 1.734 0 00-.731.344 1.146 1.146 0 00-.344.559.788.788 0 00.272.774 1.619 1.619 0 00.96.43 2.078 2.078 0 001.019-.031.788.788 0 00.5-.616m-1.677 1.189a3.883 3.883 0 01-.974-.244 2.149 2.149 0 01-.716-.416 1.29 1.29 0 01-.387-.516 1.032 1.032 0 010-.588 1.075 1.075 0 01.387-.674 2.35 2.35 0 011.032-.387 2.393 2.393 0 01-.716-.559.788.788 0 01-.149-.645 1.146 1.146 0 01.817-.817 3.339 3.339 0 011.677-.143 3.21 3.21 0 011.562.573.946.946 0 01.43.96 1.075 1.075 0 01-.416.6 2.178 2.178 0 01-.946.373 2.866 2.866 0 01.888.616.874.874 0 01.186.774 1.347 1.347 0 01-.9.931 3.41 3.41 0 01-1.82.172m9.372-2.966a1.834 1.834 0 00-.143-.8 1.089 1.089 0 00-.373-.487 1.433 1.433 0 00-.444-.215 2.379 2.379 0 00-.473 0 1.433 1.433 0 00-.96.287 1 1 0 00-.358.831.946.946 0 00.115.516.931.931 0 00.387.344 1.175 1.175 0 00.416.129 4.651 4.651 0 001.175-.086 3.009 3.009 0 00.631-.186.358.358 0 000-.129.759.759 0 000-.186m-3.754-.416a1.433 1.433 0 01.186-.688 1.963 1.963 0 01.5-.53 2.565 2.565 0 01.745-.344 3.683 3.683 0 01.888-.113 3.568 3.568 0 01.917.115 2.121 2.121 0 01.7.33 1.72 1.72 0 01.588.688 2.522 2.522 0 01.215 1.1 3.382 3.382 0 01-.2 1.146 2.493 2.493 0 01-.6.9 2.866 2.866 0 01-1.017.573 4.8 4.8 0 01-1.433.2h-.831v-.631a1.433 1.433 0 00.387.1h.516a2.422 2.422 0 001.519-.43 1.6 1.6 0 00.616-1.2 4.2 4.2 0 01-.745.258 3.2 3.2 0 01-.774.086 5.83 5.83 0 01-.745 0 2.407 2.407 0 01-.659-.229 1.5 1.5 0 01-.6-.5 1.433 1.433 0 01-.2-.745m10.618-4.156l-.186 5.015-.759.487v-4.741l-2.87 1.434-.258-.559 3.683-1.92z" fill-rule="evenodd"/><path data-name="路径 52" d="M53.922 18.786c-.6-.287-.186-.4-.143-.946s-.287-1.032-.186-1.361c.258-.9 1.433-.559 2.049-.1a1.29 1.29 0 01.3.53c.215.545.43 1.318-.2 1.72a2.063 2.063 0 01-1.82.158" fill-rule="evenodd"/><path data-name="路径 53" d="M47.087 16.106a.717.717 0 010-.186 18.872 18.872 0 002.178-.774 2.579 2.579 0 001.433-1.189 17.038 17.038 0 01-3.941.487 8.6 8.6 0 01-1.232-.974c-.545-.588-.473-1.161.315-1.218 1.189.588 3.339.158 4.628 0a4.3 4.3 0 001.433-.33 45.309 45.309 0 001.434-4.872c.688-1.046 1.218-.1 1.791.659 0 .1.158.244.258.5.186.559.215.788-.358 1.132a6.119 6.119 0 00-1.046 2.436c.888.086 1.6-.545 2.608-.315a.931.931 0 01-.53 1.189c-.831.186-1.691.3-2.622.473a6.233 6.233 0 01-1.734 2.278 5.617 5.617 0 01-.759.416 7.953 7.953 0 01-1.806.459 8.025 8.025 0 01-2.049 0" fill-rule="evenodd"/><path data-name="路径 54" d="M27.227 21.896a4.886 4.886 0 01-2.063-.888 3.639 3.639 0 010-.559 42.544 42.544 0 002.866-5c.158-.759.416-1.6.616-2.364.258-.43.387-.573.874-.229.186.387-.358 1.089-.43 1.548a18.68 18.68 0 01-.115 2.508 7.409 7.409 0 00-.229 1.118 5.374 5.374 0 00-.5 1.992c-.358.444-.229 1.318-.673 1.82l-.33.172" fill-rule="evenodd"/><path data-name="路径 55" d="M33.804 13.499c-.9.315-1.433-.158-2.063-.473-.115-.229 0-.43 0-.6a.716.716 0 00.3-.272c.358-.2.5-.229.888-.416s1.433-1.734 2.02-1.519a3.181 3.181 0 01-1.074 3.28" fill-rule="evenodd"/><path data-name="路径 56" d="M26.309 14.488c-.459-.172-1.06-1.433-1.261-1.934 0-.86.716-1.2 1.548-.96.774.473 1.247.616 1.017 1.619a2.565 2.565 0 01-1.3 1.275" fill-rule="evenodd"/><path data-name="路径 57" d="M32.628 11.234c-.258-.387 0-1.433-.287-1.648-.2.115-.387.287-.6.387-.645 0-1.433-.473-1.433-1.06s.1-.43.7-.716l1.434-1.437c.917-.573 1.591-.215 2.035.745a4.915 4.915 0 01-.373 2.02c-.416.487-.759 1-1.118 1.433a4.3 4.3 0 00-.373.229" fill-rule="evenodd"/><path data-name="路径 58" d="M26.066 10.547c-.272-.1-.272-.229-.186-.516-.2-.4-.573-.631-.745-1.017-.158-.788-.4-.989 0-1.576.559 0 2.508.215 2.465 1.275a3.4 3.4 0 01-1.592 1.776" fill-rule="evenodd"/><path data-name="路径 59" d="M16.077 37.343c-.845.588-2.866.2-2.608-1a.559.559 0 01-.143-.516 29.405 29.405 0 00-1.275-3.683c-.2-.373-.444-.673-.287-1.089.287-.072.588.244.831.473.115 0 .258-.344.315-.545-.086-.831 0-1.806-.143-2.665-.215-.186-.43-.373-.631-.573-.172.43-.716 1.849-1.2 1.089a3.511 3.511 0 00-.1-2.135c-.43-.444-1.017-.759-1.2-1.261.072-.7 1.146-.86 1.763-.588.5 0 .5-.9 1.06.673 0 .244.258.416.545.545l.129-.158a17.453 17.453 0 010-2.106 7.064 7.064 0 01-1.524-1.908c0-.731.831-1.161 1.548-1.433a1.949 1.949 0 00.215-1.232 1.433 1.433 0 01.229-.416 1.748 1.748 0 01.731.287c.573.731-.631 2.995.5 3.181.215-.387-.086-.788-.258-1.1 0-.559.917-1.261 1.533-1.433.9-.086.845.43.86 1.2l.129.315c1.146.831 1.146.831 2.737 1.906a3.468 3.468 0 01.545 1.318c.215.444.229 1.189-.315 1.247-1.3-.874-2.594-1.877-3.869-2.694a.2.2 0 000 .086 5.23 5.23 0 011.347 2.794 1.261 1.261 0 01-1.433.588.831.831 0 01-.072-.416 7.165 7.165 0 00-2.063-1.72c-.229.444.215 1.763.358 2.307v.946c.387.473.774.917 1.2 1.433l.487.817v.072c.186.4.6 1.591-.172 1.6a1.117 1.117 0 01-.215-.143 3.941 3.941 0 00-1.218-1.648c-.186.6 0 1.247-.272 1.763a3.64 3.64 0 01-.759.6.432.432 0 00-.373.215c.215.272.444.573.673.845a25.393 25.393 0 002.481 3.504.9.9 0 010 .631" fill-rule="evenodd"/><path data-name="路径 60" d="M10.561 32.113c-.344 0-.5-.387-.759-.573-.9-.258-1.576-.444-1.877-1.333l.129-.244a8.025 8.025 0 011.977-.315c1.132.258.745 1.662.573 2.465" fill-rule="evenodd"/><path data-name="路径 61" d="M8.2 29.461c-.2.143-.229.1-.33.1s-.158-.373-.373-.459c-.989 0-2.02-.774-1.849-1.791.186-.215.387-.086.759 0 .845-.172 2.106-.688 2.149.659a13.956 13.956 0 01-.356 1.434" fill-rule="evenodd"/><path data-name="路径 62" d="M59.74 30.737h-9.887c-2.866 0-4.3 2.866-5.46 5.374l-1.662-3.74 2.794-1.032c-1.634-1.548-6.735-2.407-7.408-.072l-1.201 4.845c-.946-2.178-2.293-5.374-5.316-5.374H21.566c1.3 2.307 2.551 3.138 7.165 2.938l.6 1.591h-5.057c1.433 2.745 2.365 2.864 6.434 2.745l.86 1.906-3.984.143c.86 1.949 1.763 2.78 5.173 2.622l.673 1.734h-3.166c1.189 1.963 1.777 2.866 4.3 2.637l.673 1.834H33.03a3.539 3.539 0 003.4 2.422c1.2.186 1.433 2.45 0 3.181l4.3 6.907 4.3-6.907c-1.433-.731-1.232-2.995 0-3.181a3.539 3.539 0 003.4-2.422h-2.346l.673-1.834c2.508.215 3.1-.673 4.3-2.637h-3.168l.673-1.677c3.41.158 4.3-.688 5.159-2.622l-3.969-.143.86-1.906c4.07.115 4.929 0 6.434-2.751h-5.073l.616-1.591c4.614.2 5.861-.631 7.165-2.938"/><path data-name="路径 63" d="M74.8 26.008v-.086c.143-.358.129-.5.1-.559a.966.966 0 00-.444-.2h-.358v-.1a.788.788 0 00-.158-.143l-.186-.072.244-.186a1.763 1.763 0 01.516-.3h.1a1.834 1.834 0 00.616-1.218.659.659 0 00-.559-.215 5.044 5.044 0 00-1.146.258 6.1 6.1 0 01-.774.215h-.086c-.631-.3-.659-.315-1.977-1a.487.487 0 00-.215.258.731.731 0 000 .616l.115.086-.315.172h-.072l-.086.086a.473.473 0 000 .172v.143a.4.4 0 01-.129.287v.158l-.186-.143a4.8 4.8 0 01-.459-.4h-.158a.43.43 0 00-.315.129v.387c0 .186-.2.5-.788.516h-.3a.473.473 0 00-.215 0c0 .4.172.43.6.5a3.181 3.181 0 01.545.1h.128a.559.559 0 01.244.086l.315.115h.1l-.387.186a1.275 1.275 0 00-.387.272.731.731 0 01-.172.33v.086h-.158l-.845-.215-.444-.115c-.774-.2-1.734-.459-2.637-.6a2.708 2.708 0 00-.63-.158h-.43v.129a3.782 3.782 0 00.473.315v.067a1.677 1.677 0 00.788.931l1.032.143a6.463 6.463 0 013.224.946l.229.129h.072l-.344.172a.888.888 0 00-.258.186h-.115a9.931 9.931 0 01-1.433-.358 1.042 1.042 0 00-1.447-.072h-.172a1.777 1.777 0 00-.459-.086l-.946-.315a11.549 11.549 0 01-2.723-1.161 3.653 3.653 0 01-.53-.545s-.072-.086-.1-.086v-.1a1.748 1.748 0 00-.33.287 2.981 2.981 0 00.745 2.192 4.442 4.442 0 00.974.258 3.482 3.482 0 011.734.688h.158l-.143.2a4.844 4.844 0 01-.659.673l-.129.043a1.232 1.232 0 00-.2.186h-.358a2.407 2.407 0 01-1.1-.373 1.547 1.547 0 00-.344-.158v.12a7.552 7.552 0 001.832 2.1v.1a.6.6 0 00.3.086c.573 0 1.189-.8 1.648-1.433l.287-.358h.115c.43-.33.459-.344.444-.358l.244.086a3.683 3.683 0 01.931.444c.344-.158.7-.5.659-.874l-.158-.186-.631-.559h-.1v-.186a1.333 1.333 0 01.33-.43h.143c.616.143 1.161.315 1.834.516l.588.2.143.1a1.533 1.533 0 00.96.43.674.674 0 00.215 0 3.5 3.5 0 00.716-.917c-.115-.172-.172-.215-.186-.215l.1-.129a.659.659 0 01.172-.129c1-.315 2.078-.716 2.866-.989.487-.3.53-.33.358-.774a1.977 1.977 0 00-.115-.287m-3.869.588l.158-.143c.215-.2.315-.3.344-.4s0-.086-.158-.158h-.158a.43.43 0 01-.344-.158v-.344l.215-.072a3.625 3.625 0 00.845-.315v-.1l.143.129a2.092 2.092 0 01.745 1.175v.086a1.806 1.806 0 01-1.433.573H71.1v-.215H71z"/><path data-name="路径 64" d="M66.704 24.847a.989.989 0 01-.616-.2 1.849 1.849 0 01.487-1.347c.086-.129.158-.215.215-.315v-.1l.086-.158a6.421 6.421 0 00.287-.631 2.866 2.866 0 00.1-.33c.158-.616.272-1 .588-1.1s.358.072.416.158 0 .215 0 .444v.086a.931.931 0 010 .3 3.883 3.883 0 010 1.075v.2a2.608 2.608 0 01-.1.358 2.866 2.866 0 01-.616 1.232l-.143.115h-.086a1.2 1.2 0 01-.674.215z"/><path data-name="路径 65" d="M66.705 24.833a1.333 1.333 0 00.659-.215h.086l.143-.115a2.708 2.708 0 00.6-1.218 1.433 1.433 0 00.1-.358v-.143a3.338 3.338 0 000-1.075v-.401a.731.731 0 000-.43c0-.086-.172-.115-.4-.158s-.416.487-.559 1.06a.547.547 0 01-.1.373 4.966 4.966 0 00-.3.616l-.086.172v.1a3.484 3.484 0 01-.2.315c-.258.373-.616.874-.5 1.318a1.046 1.046 0 00.6.2"/><path data-name="路径 66" d="M64.483 24.36a1.06 1.06 0 01-.5-.215c-.33-.759.86-1.6 1-1.705a.5.5 0 01.373.344 1.433 1.433 0 01-.215 1.232c-.372.244-.515.344-.658.344z"/><path data-name="路径 67" d="M64.483 24.275c.129 0 .287-.1.631-.344a1.433 1.433 0 00.229-1.218.53.53 0 00-.344-.33c-.143.1-1.318.946-1 1.677a1.032 1.032 0 00.487.215"/></g></g></svg>